<svg width="218" height="218" viewBox="0 0 218 218" fill="none" xmlns="http://www.w3.org/2000/svg">
<circle cx="108.9" cy="108.9" r="79.7206" transform="rotate(30 108.9 108.9)" fill="url(#paint0_linear_664_186)"/>
<path d="M12.0721 52.252C15.3934 46.5 29.8166 47.9025 50.3211 54.8057C46.7882 58.6385 43.584 62.8737 40.7791 67.4922C39.1541 66.9948 37.6113 66.5474 36.1502 66.1533C37.9556 67.9528 40.0028 69.8838 42.2977 71.9355C56.8276 84.9261 78.9618 100.686 105.25 115.863C131.538 131.041 156.253 142.33 174.768 148.418C177.693 149.379 180.388 150.186 182.849 150.85C181.641 149.645 180.321 148.383 178.893 147.063C181.481 142.323 183.535 137.43 185.079 132.453C201.644 146.962 210.283 158.939 206.928 164.752C200.437 175.991 151.557 159.919 97.7498 128.854C43.9426 97.7879 5.58398 63.4923 12.0721 52.252Z" fill="url(#paint1_linear_664_186)"/>
<defs>
<linearGradient id="paint0_linear_664_186" x1="111.621" y1="-0.534535" x2="107.692" y2="163.951" gradientUnits="userSpaceOnUse">
<stop stop-color="#83A598"/>
<stop offset="1" stop-color="#1D2021"/>
</linearGradient>
<linearGradient id="paint1_linear_664_186" x1="31.5748" y1="231.124" x2="157.804" y2="17.0499" gradientUnits="userSpaceOnUse">
<stop/>
<stop offset="1" stop-color="#83A598"/>
</linearGradient>
</defs>
</svg>
