<svg width="1920" height="2160" viewBox="0 0 1920 2160" fill="none" xmlns="http://www.w3.org/2000/svg">
<g clip-path="url(#clip0_119_254)">
<rect width="1920" height="2160" fill="white"/>
<rect y="-0.000976562" width="1920" height="1080" fill="#282828"/>
<g clip-path="url(#clip1_119_254)">
<path d="M2014.07 2352.51C2350.21 1770.28 2150.73 1025.8 1568.51 689.648C986.282 353.501 241.795 552.986 -94.352 1135.21C-430.499 1717.43 -231.014 2461.92 351.209 2798.07C933.433 3134.21 1677.92 2934.73 2014.07 2352.51Z" fill="url(#paint0_linear_119_254)"/>
<path fill-rule="evenodd" clip-rule="evenodd" d="M781.227 539.692C981.5 509.852 1190.26 529.578 1387.98 604.13C1384.89 606.098 1381.72 608.147 1378.46 610.28C1332.62 640.17 1277.56 680.653 1230.72 726.801C1181.65 775.15 1156.27 815.426 1147.51 842.638C1142.53 858.155 1141.07 868.807 1156.6 892.556C1255.41 1043.69 1262.37 1199.17 1206.76 1336.23C1163.66 1442.46 1085.54 1527.34 1038.92 1577.04C1077.57 1611.67 1110.98 1654.02 1134.39 1705.55C1173.51 1791.65 1172.59 1876.73 1158.46 1945.52C1134.81 2060.59 1063.52 2169.86 1020.58 2235.68C1018.72 2238.53 1016.92 2241.29 1015.17 2243.97C976.628 2303.19 952.075 2341.91 937.506 2369.96C1029.38 2451.24 1084.56 2551.47 1103.34 2660.85C1122.8 2774.16 1100.01 2877.89 1071.33 2956.14C906.496 2971.44 737.46 2953.31 574.835 2898.91C577.321 2895.54 579.968 2891.87 582.728 2887.92C600.848 2861.99 619.708 2830 631.805 2798.06C644.303 2765.07 644.163 2746.55 643.022 2739.91C642.635 2737.65 642.081 2735.99 640.538 2733.54C638.863 2730.87 633.425 2723.2 618.748 2712.27C548.733 2660.12 493.445 2589.12 468.992 2499.09C445.547 2412.76 456.988 2332.81 475.127 2271.48C505.129 2170.03 570.695 2070.07 612.956 2005.64L612.963 2005.63C616.749 1999.86 620.349 1994.37 623.718 1989.2C648.021 1951.85 666.734 1922.41 681.09 1895.97C635.167 1864.33 589.663 1822.9 556.899 1767.46C507.874 1684.5 501.694 1594.77 523.772 1515.19C542.798 1446.62 580.515 1393.32 606.77 1360.04C631.772 1328.36 661.05 1297.16 683.132 1273.63C685.08 1271.56 686.972 1269.54 688.798 1267.59C743.421 1209.29 765.046 1181.51 773.429 1161.91C772.11 1158.94 769.757 1154.39 765.673 1148.14C668.023 998.787 657.626 840.368 702.877 699.652C721.794 640.827 749.556 587.385 781.227 539.692ZM942.496 1508.69C942.447 1508.65 942.421 1508.63 942.418 1508.64C942.412 1508.64 942.568 1508.77 942.907 1509.04C942.712 1508.87 942.574 1508.75 942.496 1508.69ZM966.265 1659.25C966.262 1659.25 966.338 1659.12 966.51 1658.85C966.355 1659.11 966.271 1659.25 966.265 1659.25ZM922.282 2406.74C922.279 2406.74 922.296 2406.65 922.34 2406.45C922.305 2406.64 922.285 2406.74 922.282 2406.74ZM774.985 1166.17C774.973 1166.17 774.917 1165.97 774.847 1165.6C774.96 1165.98 774.994 1166.17 774.985 1166.17Z" fill="url(#paint1_linear_119_254)"/>
<path fill-rule="evenodd" clip-rule="evenodd" d="M282.726 731.947C485.89 596.218 725.861 524.721 969.307 526.391C926.419 555.209 877.375 592.286 835.05 633.988C785.98 682.337 760.593 722.612 751.841 749.825C746.851 765.34 745.398 775.994 760.925 799.741C859.737 950.877 866.693 1106.36 811.085 1243.42C767.984 1349.65 689.868 1434.52 643.249 1484.22C681.901 1518.86 715.31 1561.2 738.719 1612.73C777.835 1698.83 776.922 1783.92 762.783 1852.7C739.133 1967.77 667.846 2077.05 624.903 2142.87C623.047 2145.71 621.242 2148.48 619.501 2151.16C580.955 2210.38 556.402 2249.1 541.833 2277.14C633.706 2358.42 688.885 2458.65 707.672 2568.03C727.749 2684.93 702.853 2791.63 672.915 2870.68C666.212 2888.38 658.974 2905.43 651.429 2921.75C548.632 2894.77 447.693 2853.77 351.21 2798.07C308.989 2773.69 268.781 2747.17 230.645 2718.72C232.593 2714.24 234.429 2709.74 236.132 2705.25C248.629 2672.25 248.49 2653.74 247.347 2647.09C246.962 2644.84 246.408 2643.18 244.863 2640.72C243.19 2638.06 237.753 2630.39 223.075 2619.46C153.06 2567.3 97.7703 2496.31 73.3198 2406.28C49.8739 2319.95 61.3155 2240 79.4523 2178.67C109.456 2077.22 175.02 1977.26 217.283 1912.83L217.29 1912.82C221.076 1907.05 224.675 1901.56 228.045 1896.38C252.348 1859.04 271.061 1829.6 285.415 1803.15C239.494 1771.52 193.988 1730.09 161.226 1674.64C112.201 1591.68 106.021 1501.96 128.099 1422.38C147.127 1353.8 184.84 1300.5 211.098 1267.23C236.097 1235.54 265.377 1204.35 287.459 1180.82L287.46 1180.82C289.408 1178.74 291.299 1176.73 293.125 1174.78C347.748 1116.48 369.373 1088.7 377.756 1069.1C376.437 1066.13 374.084 1061.58 370 1055.33C300.423 948.908 275.14 837.888 282.726 731.947ZM546.745 1415.82C546.751 1415.82 546.921 1415.96 547.234 1416.23C546.895 1415.96 546.739 1415.82 546.745 1415.82ZM570.837 1566.03C570.664 1566.31 570.592 1566.44 570.592 1566.44C570.592 1566.44 570.623 1566.39 570.676 1566.31C570.717 1566.24 570.77 1566.15 570.837 1566.03ZM526.609 2313.93C526.609 2313.93 526.623 2313.83 526.667 2313.64C526.632 2313.83 526.609 2313.93 526.609 2313.93ZM379.174 1072.79C379.244 1073.16 379.3 1073.35 379.31 1073.35C379.317 1073.35 379.311 1073.31 379.29 1073.22C379.27 1073.13 379.231 1072.98 379.174 1072.79Z" fill="url(#paint2_linear_119_254)"/>
<path fill-rule="evenodd" clip-rule="evenodd" d="M380.701 1704.54C403.685 1552.71 362.12 1408.38 270.514 1277.99C278.757 1267.58 289.411 1254.48 303.133 1238.17C306.166 1234.57 309.475 1230.67 313.02 1226.49C357.572 1174.01 439.573 1077.4 486.362 959.955C529.472 851.753 541.812 733.412 513.007 611.492C265.894 708.822 48.7629 887.327 -94.3512 1135.21C-429.905 1716.4 -231.716 2459.29 348.131 2796.28C404.382 2601.92 448.045 2286.67 242.591 2024.29C246.775 2017.35 251.72 2009.27 257.556 1999.91C259.146 1997.36 260.872 1994.61 262.719 1991.67C294.253 1941.47 360.897 1835.37 380.701 1704.54Z" fill="url(#paint3_linear_119_254)"/>
<path fill-rule="evenodd" clip-rule="evenodd" d="M1593.7 704.586C1585.38 699.522 1576.98 694.543 1568.51 689.648C1426.54 607.685 1274.93 557.568 1121.95 537.084C1119.08 542.076 1116.3 547.136 1113.58 552.265C1079.1 617.482 1056.25 695.83 1060.81 783.493C1065.37 871.326 1096.62 952.595 1145.64 1024.69C1161.56 1048.11 1159.1 1053.26 1157.57 1056.45C1157.36 1056.9 1157.16 1057.32 1157.04 1057.73C1149.64 1082.87 1130.01 1114.03 1079.36 1185.5C1077.35 1188.35 1075.22 1191.33 1072.99 1194.46L1072.95 1194.51C1033.92 1249.31 965.098 1345.93 940.501 1458.62C925.78 1526.07 925.601 1600.93 950.567 1678.34C974.931 1753.88 1019 1818.75 1073.3 1874.61C1076.57 1877.98 1079.29 1880.93 1081.53 1883.48C1075.02 1894.46 1063.02 1912.98 1041.13 1942.61C1037.8 1947.11 1034.03 1952.13 1029.89 1957.62C995.019 2003.98 934.414 2084.55 902.163 2174.62C857.073 2300.55 863.922 2442.8 955.77 2580.76C1005.83 2655.96 1016 2765.07 997.757 2885.26C993.654 2912.29 988.399 2937.87 982.775 2961.12C1151.64 2957.78 1318.12 2919.32 1471.02 2848.74C1480.76 2693.04 1461.11 2497.93 1345.53 2323.4C1354.33 2304.98 1372.78 2279.7 1416.74 2220.21C1417.54 2219.12 1418.36 2218.02 1419.2 2216.89L1419.4 2216.62C1457.21 2165.5 1528.51 2069.14 1549.22 1949.35C1575.25 1798.83 1518.31 1662.32 1408.19 1549.05C1406.27 1547.07 1404.59 1545.26 1403.11 1543.61C1404.88 1540.09 1407.14 1535.9 1410 1530.96C1421.76 1510.62 1437.33 1488.17 1460.44 1455.55C1462.87 1452.12 1465.44 1448.52 1468.13 1444.74C1507.82 1389.06 1573.53 1296.87 1605.1 1189.61C1645.21 1053.34 1629.38 905.478 1531.9 762.1C1541.54 748.882 1560.8 728.916 1593.7 704.586ZM1393.62 1531.24C1393.6 1531.2 1393.59 1531.18 1393.59 1531.18C1393.59 1531.18 1393.63 1531.26 1393.71 1531.41C1393.67 1531.33 1393.64 1531.27 1393.62 1531.24ZM1526.04 751.866C1526.05 751.869 1526.08 751.967 1526.14 752.156C1526.07 751.96 1526.03 751.885 1526.04 751.866ZM1340.31 2314.62C1340.31 2314.62 1340.32 2314.65 1340.34 2314.7C1340.32 2314.64 1340.31 2314.62 1340.31 2314.62Z" fill="url(#paint4_linear_119_254)"/>
<path fill-rule="evenodd" clip-rule="evenodd" d="M2024.63 1153.5C1921.16 966.467 1767.1 804.305 1568.51 689.648C1542.97 674.903 1517.11 661.199 1491 648.494C1471.92 700.347 1461.11 758.383 1464.37 821.206C1468.94 909.034 1500.19 990.305 1549.21 1062.4C1565.13 1085.82 1562.67 1090.97 1561.14 1094.16C1560.93 1094.61 1560.73 1095.02 1560.61 1095.44C1553.21 1120.58 1533.58 1151.74 1482.93 1223.21C1480.92 1226.06 1478.79 1229.04 1476.56 1232.17L1476.52 1232.22C1437.49 1287.02 1368.67 1383.64 1344.07 1496.33C1329.35 1563.77 1329.17 1638.64 1354.14 1716.05C1378.5 1791.59 1422.56 1856.46 1476.86 1912.32C1480.14 1915.69 1482.86 1918.64 1485.1 1921.18C1478.59 1932.17 1466.59 1950.69 1444.69 1980.32C1441.37 1984.82 1437.6 1989.83 1433.46 1995.33C1398.59 2041.69 1337.98 2122.26 1305.73 2212.33C1260.64 2338.26 1267.49 2480.51 1359.34 2618.47C1402.81 2683.77 1416.2 2774.62 1407.03 2876.09C1571.02 2811.45 1721.79 2711.05 1846.48 2578.34C1826.72 2505.21 1795.7 2431.48 1749.1 2361.1C1757.9 2342.69 1776.34 2317.41 1820.31 2257.92C1821.11 2256.83 1821.93 2255.73 1822.76 2254.6L1822.97 2254.33C1860.78 2203.21 1932.07 2106.85 1952.79 1987.06C1978.81 1836.54 1921.88 1700.03 1811.76 1586.76C1809.84 1584.78 1808.15 1582.97 1806.68 1581.32C1808.45 1577.8 1810.71 1573.61 1813.57 1568.67C1825.33 1548.33 1840.9 1525.88 1864.01 1493.26C1866.44 1489.83 1869.01 1486.22 1871.7 1482.45C1911.39 1426.77 1977.1 1334.58 2008.66 1227.32C2015.81 1203.05 2021.18 1178.42 2024.63 1153.5ZM1797.16 1568.89C1797.16 1568.89 1797.2 1568.96 1797.28 1569.12C1797.19 1568.97 1797.16 1568.89 1797.16 1568.89ZM1743.88 2352.33C1743.88 2352.33 1743.89 2352.36 1743.91 2352.41C1743.89 2352.36 1743.88 2352.33 1743.88 2352.33Z" fill="url(#paint5_linear_119_254)"/>
<path fill-rule="evenodd" clip-rule="evenodd" d="M1840.4 902.879C2204.49 1283.78 2290.83 1873.14 2014.07 2352.51C1947.69 2467.47 1865.39 2567.51 1771.56 2651.46C1692.06 2563.61 1647.75 2456.46 1657.02 2332.07C1666.63 2203.13 1736.15 2091.05 1773.61 2030.69C1774.91 2028.58 1776.18 2026.54 1777.4 2024.56C1823.36 1950.29 1842.75 1917.75 1850.33 1894.22C1849.14 1892.86 1847.72 1891.32 1846.05 1889.6C1793.61 1835.66 1745.92 1768.67 1724.47 1686.19C1701.47 1597.73 1714.99 1516.12 1744.55 1449.05C1771.32 1388.3 1810.51 1341.04 1838.87 1309.66C1856.66 1289.96 1881.02 1265.3 1899.66 1246.43L1899.66 1246.43C1907.55 1238.43 1914.42 1231.48 1919.33 1226.38C1968.82 1175 1974.29 1157.61 1975.13 1153.33C1975.21 1152.87 1975.37 1151.97 1975.27 1150.02C1975.16 1147.98 1974.68 1143.38 1972.42 1135.7C1967.74 1119.82 1955.26 1090.45 1922.85 1046C1889.92 1000.88 1861.6 952.792 1840.4 902.879ZM1856.05 1901.76C1856.05 1901.76 1855.97 1901.63 1855.83 1901.36C1855.99 1901.63 1856.06 1901.76 1856.05 1901.76Z" fill="url(#paint6_linear_119_254)"/>
</g>
<path d="M960 81.0002L1031.74 187.257L1138 259L1031.74 330.743L960 437L888.257 330.743L782 259L888.257 187.257L960 81.0002Z" fill="#D79921" fill-opacity="0.3"/>
<path d="M960 137L977.536 243.464L1084 261L977.536 278.536L960 385L942.464 278.536L836 261L942.464 243.464L960 137Z" fill="#D79921"/>
<circle cx="960.5" cy="1559.26" r="321.26" fill="url(#paint7_radial_119_254)"/>
<path d="M666.022 1430.64C651.361 1464.16 642.257 1500.66 639.87 1538.98C626.945 1542.26 614.665 1545.7 603.082 1549.31C576.052 1557.72 554.911 1566.35 539.088 1574.34C554.911 1582.34 576.052 1590.96 603.082 1599.38C690.133 1626.48 816.52 1644.78 960.5 1644.78C1104.48 1644.78 1230.87 1626.48 1317.92 1599.38C1344.95 1590.96 1366.09 1582.34 1381.91 1574.34C1366.09 1566.35 1344.95 1557.72 1317.92 1549.31C1306.33 1545.7 1294.05 1542.26 1281.13 1538.98C1278.74 1500.66 1269.64 1464.16 1254.98 1430.64C1407.13 1460.91 1508 1513.96 1508 1574.34C1508 1668.47 1262.88 1744.78 960.5 1744.78L953.423 1744.76C654.309 1743.58 413 1667.74 413 1574.34C413.001 1513.96 513.873 1460.91 666.022 1430.64Z" fill="url(#paint8_radial_119_254)"/>
</g>
<defs>
<linearGradient id="paint0_linear_119_254" x1="922.235" y1="316.524" x2="997.48" y2="3171.19" gradientUnits="userSpaceOnUse">
<stop stop-color="#FE8019"/>
<stop offset="1" stop-color="#282828"/>
</linearGradient>
<linearGradient id="paint1_linear_119_254" x1="932.413" y1="4230.5" x2="988.128" y2="-739.701" gradientUnits="userSpaceOnUse">
<stop offset="0.6" stop-color="#282828"/>
<stop offset="1" stop-color="#FABD2F"/>
</linearGradient>
<linearGradient id="paint2_linear_119_254" x1="932.413" y1="4230.5" x2="988.128" y2="-739.701" gradientUnits="userSpaceOnUse">
<stop offset="0.6" stop-color="#282828"/>
<stop offset="1" stop-color="#B16286"/>
</linearGradient>
<linearGradient id="paint3_linear_119_254" x1="932.413" y1="4230.5" x2="988.127" y2="-739.7" gradientUnits="userSpaceOnUse">
<stop offset="0.595" stop-color="#282828"/>
<stop offset="1" stop-color="#D3869B"/>
</linearGradient>
<linearGradient id="paint4_linear_119_254" x1="932.414" y1="4230.5" x2="988.128" y2="-739.701" gradientUnits="userSpaceOnUse">
<stop offset="0.6" stop-color="#282828"/>
<stop offset="1" stop-color="#98971A"/>
</linearGradient>
<linearGradient id="paint5_linear_119_254" x1="932.413" y1="4230.5" x2="988.127" y2="-739.7" gradientUnits="userSpaceOnUse">
<stop offset="0.6" stop-color="#282828"/>
<stop offset="1" stop-color="#689D6A"/>
</linearGradient>
<linearGradient id="paint6_linear_119_254" x1="932.413" y1="4230.5" x2="988.128" y2="-739.701" gradientUnits="userSpaceOnUse">
<stop offset="0.6" stop-color="#282828"/>
<stop offset="1" stop-color="#75B478"/>
</linearGradient>
<radialGradient id="paint7_radial_119_254" cx="0" cy="0" r="1" gradientUnits="userSpaceOnUse" gradientTransform="translate(934 933) rotate(88.5389) scale(848.379)">
<stop stop-color="#83A598"/>
<stop offset="0.695591" stop-color="#282828"/>
</radialGradient>
<radialGradient id="paint8_radial_119_254" cx="0" cy="0" r="1" gradientUnits="userSpaceOnUse" gradientTransform="translate(960 889) rotate(90) scale(893.5 765.12)">
<stop stop-color="#73AA95"/>
<stop offset="1" stop-color="#282828"/>
<stop offset="1" stop-color="#282828"/>
</radialGradient>
<clipPath id="clip0_119_254">
<rect width="1920" height="2160" fill="white"/>
</clipPath>
<clipPath id="clip1_119_254">
<rect width="2434.59" height="2434.59" fill="white" transform="translate(-703 2189.42) rotate(-60)"/>
</clipPath>
</defs>
</svg>
