<svg width="1920" height="2160" viewBox="0 0 1920 2160" fill="none" xmlns="http://www.w3.org/2000/svg">
<rect width="1920" height="1080" fill="#282828"/>
<rect y="569" width="1920" height="1591" fill="url(#paint0_linear_122_496)"/>
<rect y="569" width="1920" height="1591" fill="url(#paint1_linear_122_496)"/>
<circle cx="958.482" cy="284.809" r="90.4947" transform="rotate(60 958.482 284.809)" fill="url(#paint2_linear_122_496)"/>
<path d="M948.384 194.855C937.539 196.067 926.755 199.271 916.563 204.608C914.103 202.092 911.688 199.74 909.327 197.562C904.929 193.502 900.997 190.297 897.584 187.827C898.017 192.018 898.825 197.026 900.142 202.865C905.741 227.692 918.994 260.928 939.207 295.938C959.419 330.947 981.576 359.042 1000.28 376.305C1004.68 380.365 1008.61 383.568 1012.02 386.038C1011.59 381.847 1010.78 376.84 1009.46 371.002C1008.76 367.868 1007.93 364.6 1006.98 361.211C1016.69 355.053 1024.86 347.316 1031.33 338.53C1045.38 379.91 1046.64 411.989 1031.91 420.494C1008.95 433.751 955.813 384.701 913.226 310.938L912.233 309.209C870.392 236.075 854.908 166.526 877.691 153.372C892.421 144.867 919.57 162.003 948.384 194.855Z" fill="url(#paint3_linear_122_496)"/>
<rect width="1920" height="569" fill="url(#paint4_linear_122_496)" fill-opacity="0.39"/>
<defs>
<linearGradient id="paint0_linear_122_496" x1="1951.5" y1="-8712.35" x2="-4474.52" y2="-4169.87" gradientUnits="userSpaceOnUse">
<stop stop-color="#A78C67"/>
<stop offset="1" stop-color="#282828"/>
</linearGradient>
<linearGradient id="paint1_linear_122_496" x1="960" y1="569" x2="960" y2="1164.5" gradientUnits="userSpaceOnUse">
<stop stop-color="#282828" stop-opacity="0"/>
<stop offset="1" stop-color="#282828"/>
</linearGradient>
<linearGradient id="paint2_linear_122_496" x1="961.57" y1="160.584" x2="957.111" y2="347.299" gradientUnits="userSpaceOnUse">
<stop stop-color="#83A598"/>
<stop offset="1" stop-color="#282828"/>
</linearGradient>
<linearGradient id="paint3_linear_122_496" x1="1036.64" y1="239.193" x2="911.411" y2="311.193" gradientUnits="userSpaceOnUse">
<stop stop-color="#73AA95"/>
<stop offset="1" stop-color="#282828"/>
</linearGradient>
<linearGradient id="paint4_linear_122_496" x1="960" y1="1081.5" x2="960" y2="6.7811e-06" gradientUnits="userSpaceOnUse">
<stop stop-color="#458588"/>
<stop offset="1" stop-color="#282828"/>
</linearGradient>
</defs>
</svg>
