<svg width="1920" height="2160" viewBox="0 0 1920 2160" fill="none" xmlns="http://www.w3.org/2000/svg">
<rect width="1920" height="2160" fill="#282828"/>
<path d="M959.5 83L1005.65 151.351L1074 197.5L1005.65 243.649L959.5 312L913.351 243.649L845 197.5L913.351 151.351L959.5 83Z" fill="#FABD2F" fill-opacity="0.3"/>
<path d="M959.5 119L970.743 187.257L1039 198.5L970.743 209.743L959.5 278L948.257 209.743L880 198.5L948.257 187.257L959.5 119Z" fill="#FABD2F"/>
<path d="M662 540C662 704.581 795.419 838 960 838C1043.87 838 1119.65 803.352 1173.8 747.588C1215.53 704.617 1244.42 649.107 1254.27 587.25C1256.73 571.861 1258 556.079 1258 540C1258 495.454 1248.23 453.191 1230.71 415.238C1183.49 312.97 1080.03 242 960 242C795.419 242 662 375.419 662 540Z" fill="url(#paint0_radial_91_73)"/>
<path d="M960 694C723 694 363 634 363 564.567C363 517.446 500.711 462.172 682.363 431.514C686.31 421.42 690.792 411.594 695.774 402.07C695.656 402.087 695.539 402.104 695.422 402.122C470.48 435.409 251 504.257 251 564.567C251 647.862 656.973 725.548 960 730C1260.49 730 1666 645.391 1666 564.568C1666 509.962 1458.97 436.642 1224.16 401.881C1226.45 406.27 1228.63 410.724 1230.71 415.238C1233.21 420.667 1235.56 426.183 1237.74 431.782C1416.83 462.494 1551 517.584 1551 564.568C1551 634.001 1197 694 960 694Z" fill="url(#paint1_radial_91_73)"/>
<g clip-path="url(#paint2_diamond_91_73_clip_path)" data-figma-skip-parse="true"><g transform="matrix(-3.96682e-08 0.263 -0.601706 -9.94878e-08 960 700)"><rect x="0" y="0" width="1745.25" height="1279.69" fill="url(#paint2_diamond_91_73)" opacity="1" shape-rendering="crispEdges"/><rect x="0" y="0" width="1745.25" height="1279.69" transform="scale(1 -1)" fill="url(#paint2_diamond_91_73)" opacity="1" shape-rendering="crispEdges"/><rect x="0" y="0" width="1745.25" height="1279.69" transform="scale(-1 1)" fill="url(#paint2_diamond_91_73)" opacity="1" shape-rendering="crispEdges"/><rect x="0" y="0" width="1745.25" height="1279.69" transform="scale(-1)" fill="url(#paint2_diamond_91_73)" opacity="1" shape-rendering="crispEdges"/></g></g><path d="M960 694C723 694 363 634 363 564.567C363 517.446 500.711 462.172 682.363 431.514C686.31 421.42 690.792 411.594 695.774 402.07C695.656 402.087 695.539 402.104 695.422 402.122C470.48 435.409 251 504.257 251 564.567C251 647.862 656.973 725.548 960 730C1260.49 730 1666 645.391 1666 564.568C1666 509.962 1458.97 436.642 1224.16 401.881C1226.45 406.27 1228.63 410.724 1230.71 415.238C1233.21 420.667 1235.56 426.183 1237.74 431.782C1416.83 462.494 1551 517.584 1551 564.568C1551 634.001 1197 694 960 694Z" data-figma-gradient-fill="{&#34;type&#34;:&#34;GRADIENT_DIAMOND&#34;,&#34;stops&#34;:[{&#34;color&#34;:{&#34;r&#34;:0.15686275064945221,&#34;g&#34;:0.15686275064945221,&#34;b&#34;:0.15686275064945221,&#34;a&#34;:1.0},&#34;position&#34;:0.64850598573684692},{&#34;color&#34;:{&#34;r&#34;:0.50,&#34;g&#34;:0.43625003099441528,&#34;b&#34;:0.39375001192092896,&#34;a&#34;:0.0},&#34;position&#34;:0.66724699735641479}],&#34;stopsVar&#34;:[{&#34;color&#34;:{&#34;r&#34;:0.15686275064945221,&#34;g&#34;:0.15686275064945221,&#34;b&#34;:0.15686275064945221,&#34;a&#34;:1.0},&#34;position&#34;:0.64850598573684692},{&#34;color&#34;:{&#34;r&#34;:0.50,&#34;g&#34;:0.43625003099441528,&#34;b&#34;:0.39375001192092896,&#34;a&#34;:0.0},&#34;position&#34;:0.66724699735641479}],&#34;transform&#34;:{&#34;m00&#34;:-7.9336467024404556e-05,&#34;m01&#34;:-1203.4121093750,&#34;m02&#34;:1561.70605468750,&#34;m10&#34;:526.0,&#34;m11&#34;:-0.00019897565653081983,&#34;m12&#34;:437.00012207031250},&#34;opacity&#34;:1.0,&#34;blendMode&#34;:&#34;NORMAL&#34;,&#34;visible&#34;:true}"/>
<path d="M191 564.568C191 684.873 695.84 761 960 761C1224.16 761 1729 684.844 1729 564.54C1729 474.549 1465.46 404.181 1207.92 374.433C1213.8 383.258 1219.23 392.419 1224.16 401.881C1458.97 436.642 1666 509.962 1666 564.568C1666 645.391 1260.49 730 960 730C656.973 725.548 251 647.862 251 564.567C251 504.257 470.48 435.409 695.422 402.122C695.539 402.104 695.656 402.087 695.774 402.07C700.759 392.54 706.244 383.313 712.195 374.424C454.619 404.173 191 474.564 191 564.568Z" fill="url(#paint3_radial_91_73)"/>
<g clip-path="url(#paint4_diamond_91_73_clip_path)" data-figma-skip-parse="true"><g transform="matrix(2.31054e-08 0.327 -0.748129 4.20042e-08 960 742)"><rect x="0" y="0" width="1532.11" height="1029.23" fill="url(#paint4_diamond_91_73)" opacity="1" shape-rendering="crispEdges"/><rect x="0" y="0" width="1532.11" height="1029.23" transform="scale(1 -1)" fill="url(#paint4_diamond_91_73)" opacity="1" shape-rendering="crispEdges"/><rect x="0" y="0" width="1532.11" height="1029.23" transform="scale(-1 1)" fill="url(#paint4_diamond_91_73)" opacity="1" shape-rendering="crispEdges"/><rect x="0" y="0" width="1532.11" height="1029.23" transform="scale(-1)" fill="url(#paint4_diamond_91_73)" opacity="1" shape-rendering="crispEdges"/></g></g><path d="M191 564.568C191 684.873 695.84 761 960 761C1224.16 761 1729 684.844 1729 564.54C1729 474.549 1465.46 404.181 1207.92 374.433C1213.8 383.258 1219.23 392.419 1224.16 401.881C1458.97 436.642 1666 509.962 1666 564.568C1666 645.391 1260.49 730 960 730C656.973 725.548 251 647.862 251 564.567C251 504.257 470.48 435.409 695.422 402.122C695.539 402.104 695.656 402.087 695.774 402.07C700.759 392.54 706.244 383.313 712.195 374.424C454.619 404.173 191 474.564 191 564.568Z" data-figma-gradient-fill="{&#34;type&#34;:&#34;GRADIENT_DIAMOND&#34;,&#34;stops&#34;:[{&#34;color&#34;:{&#34;r&#34;:0.15686275064945221,&#34;g&#34;:0.15686275064945221,&#34;b&#34;:0.15686275064945221,&#34;a&#34;:1.0},&#34;position&#34;:0.64850598573684692},{&#34;color&#34;:{&#34;r&#34;:0.50,&#34;g&#34;:0.43625003099441528,&#34;b&#34;:0.39375001192092896,&#34;a&#34;:0.0},&#34;position&#34;:0.66724699735641479}],&#34;stopsVar&#34;:[{&#34;color&#34;:{&#34;r&#34;:0.15686275064945221,&#34;g&#34;:0.15686275064945221,&#34;b&#34;:0.15686275064945221,&#34;a&#34;:1.0},&#34;position&#34;:0.64850598573684692},{&#34;color&#34;:{&#34;r&#34;:0.50,&#34;g&#34;:0.43625003099441528,&#34;b&#34;:0.39375001192092896,&#34;a&#34;:0.0},&#34;position&#34;:0.66724699735641479}],&#34;transform&#34;:{&#34;m00&#34;:4.6210854634409770e-05,&#34;m01&#34;:-1496.25781250,&#34;m02&#34;:1708.1287841796875,&#34;m10&#34;:654.00006103515625,&#34;m11&#34;:8.4008432168047875e-05,&#34;m12&#34;:414.99990844726562},&#34;opacity&#34;:1.0,&#34;blendMode&#34;:&#34;NORMAL&#34;,&#34;visible&#34;:true}"/>
<path d="M1480 1428L1484.27 1441.13H1498.07L1486.9 1449.24L1491.17 1462.37L1480 1454.26L1468.83 1462.37L1473.1 1449.24L1461.93 1441.13H1475.73L1480 1428Z" fill="#D5C4A1" fill-opacity="0.3"/>
<path d="M1483.79 1441.28L1483.9 1441.63H1496.53L1486.61 1448.84L1486.31 1449.05L1486.43 1449.4L1490.22 1461.06L1480.29 1453.85L1480 1453.64L1479.71 1453.85L1469.78 1461.06L1473.57 1449.4L1473.69 1449.05L1473.39 1448.84L1463.47 1441.63H1476.1L1476.21 1441.28L1480 1429.62L1483.79 1441.28Z" stroke="#D5C4A1" stroke-opacity="0.2"/>
<path d="M1621 1542L1625.27 1555.13H1639.07L1627.9 1563.24L1632.17 1576.37L1621 1568.26L1609.83 1576.37L1614.1 1563.24L1602.93 1555.13H1616.73L1621 1542Z" fill="#D5C4A1" fill-opacity="0.3"/>
<path d="M1624.79 1555.28L1624.9 1555.63H1637.53L1627.61 1562.84L1627.31 1563.05L1627.43 1563.4L1631.22 1575.06L1621.29 1567.85L1621 1567.64L1620.71 1567.85L1610.78 1575.06L1614.57 1563.4L1614.69 1563.05L1614.39 1562.84L1604.47 1555.63H1617.1L1617.21 1555.28L1621 1543.62L1624.79 1555.28Z" stroke="#D5C4A1" stroke-opacity="0.2"/>
<path d="M1501 1857L1505.27 1870.13H1519.07L1507.9 1878.24L1512.17 1891.37L1501 1883.26L1489.83 1891.37L1494.1 1878.24L1482.93 1870.13H1496.73L1501 1857Z" fill="#D5C4A1" fill-opacity="0.3"/>
<path d="M1504.79 1870.28L1504.9 1870.63H1517.53L1507.61 1877.84L1507.31 1878.05L1507.43 1878.4L1511.22 1890.06L1501.29 1882.85L1501 1882.64L1500.71 1882.85L1490.78 1890.06L1494.57 1878.4L1494.69 1878.05L1494.39 1877.84L1484.47 1870.63H1497.1L1497.21 1870.28L1501 1858.62L1504.79 1870.28Z" stroke="#D5C4A1" stroke-opacity="0.2"/>
<path d="M1386 2003L1390.27 2016.13H1404.07L1392.9 2024.24L1397.17 2037.37L1386 2029.26L1374.83 2037.37L1379.1 2024.24L1367.93 2016.13H1381.73L1386 2003Z" fill="#D5C4A1" fill-opacity="0.3"/>
<path d="M1389.79 2016.28L1389.9 2016.63H1402.53L1392.61 2023.84L1392.31 2024.05L1392.43 2024.4L1396.22 2036.06L1386.29 2028.85L1386 2028.64L1385.71 2028.85L1375.78 2036.06L1379.57 2024.4L1379.69 2024.05L1379.39 2023.84L1369.47 2016.63H1382.1L1382.21 2016.28L1386 2004.62L1389.79 2016.28Z" stroke="#D5C4A1" stroke-opacity="0.2"/>
<path d="M1070 2003L1074.27 2016.13H1088.07L1076.9 2024.24L1081.17 2037.37L1070 2029.26L1058.83 2037.37L1063.1 2024.24L1051.93 2016.13H1065.73L1070 2003Z" fill="#D5C4A1" fill-opacity="0.3"/>
<path d="M1073.79 2016.28L1073.9 2016.63H1086.53L1076.61 2023.84L1076.31 2024.05L1076.43 2024.4L1080.22 2036.06L1070.29 2028.85L1070 2028.64L1069.71 2028.85L1059.78 2036.06L1063.57 2024.4L1063.69 2024.05L1063.39 2023.84L1053.47 2016.63H1066.1L1066.21 2016.28L1070 2004.62L1073.79 2016.28Z" stroke="#D5C4A1" stroke-opacity="0.2"/>
<path d="M1009 1980L1013.27 1993.13H1027.07L1015.9 2001.24L1020.17 2014.37L1009 2006.26L997.832 2014.37L1002.1 2001.24L990.93 1993.13H1004.73L1009 1980Z" fill="#D5C4A1" fill-opacity="0.3"/>
<path d="M1012.79 1993.28L1012.9 1993.63H1025.53L1015.61 2000.84L1015.31 2001.05L1015.43 2001.4L1019.22 2013.06L1009.29 2005.85L1009 2005.64L1008.71 2005.85L998.782 2013.06L1002.57 2001.4L1002.69 2001.05L1002.39 2000.84L992.469 1993.63H1005.1L1005.21 1993.28L1009 1981.62L1012.79 1993.28Z" stroke="#D5C4A1" stroke-opacity="0.2"/>
<path d="M858.5 1935L861.755 1945.02L872.29 1945.02L863.767 1951.21L867.023 1961.23L858.5 1955.04L849.977 1961.23L853.233 1951.21L844.71 1945.02L855.245 1945.02L858.5 1935Z" fill="#D5C4A1" fill-opacity="0.3"/>
<path d="M861.28 1945.17L861.393 1945.52H870.75L863.474 1950.81L863.18 1951.02L863.292 1951.37L866.07 1959.92L858.794 1954.63L858.5 1954.42L858.206 1954.63L850.929 1959.92L853.708 1951.37L853.82 1951.02L853.526 1950.81L846.25 1945.52H855.607L855.72 1945.17L858.5 1936.62L861.28 1945.17Z" stroke="#D5C4A1" stroke-opacity="0.2"/>
<path d="M797.5 2041L800.755 2051.02L811.29 2051.02L802.767 2057.21L806.023 2067.23L797.5 2061.04L788.977 2067.23L792.233 2057.21L783.71 2051.02L794.245 2051.02L797.5 2041Z" fill="#D5C4A1" fill-opacity="0.3"/>
<path d="M800.28 2051.17L800.393 2051.52H809.75L802.474 2056.81L802.18 2057.02L802.292 2057.37L805.07 2065.92L797.794 2060.63L797.5 2060.42L797.206 2060.63L789.929 2065.92L792.708 2057.37L792.82 2057.02L792.526 2056.81L785.25 2051.52H794.607L794.72 2051.17L797.5 2042.62L800.28 2051.17Z" stroke="#D5C4A1" stroke-opacity="0.2"/>
<path d="M1107.5 2052L1110.31 2060.64H1119.39L1112.04 2065.98L1114.85 2074.61L1107.5 2069.27L1100.15 2074.61L1102.96 2065.98L1095.61 2060.64H1104.69L1107.5 2052Z" fill="#D5C4A1" fill-opacity="0.3"/>
<path d="M1109.83 2060.79L1109.94 2061.14H1117.85L1111.75 2065.57L1111.45 2065.78L1111.57 2066.13L1113.9 2073.3L1107.79 2068.87L1107.5 2068.66L1107.21 2068.87L1101.1 2073.3L1103.43 2066.13L1103.55 2065.78L1103.25 2065.57L1097.15 2061.14H1105.06L1105.17 2060.79L1107.5 2053.62L1109.83 2060.79Z" stroke="#D5C4A1" stroke-opacity="0.2"/>
<path d="M1582 2047L1586.27 2060.13H1600.07L1588.9 2068.24L1593.17 2081.37L1582 2073.26L1570.83 2081.37L1575.1 2068.24L1563.93 2060.13H1577.73L1582 2047Z" fill="#D5C4A1" fill-opacity="0.3"/>
<path d="M1585.79 2060.28L1585.9 2060.63H1598.53L1588.61 2067.84L1588.31 2068.05L1588.43 2068.4L1592.22 2080.06L1582.29 2072.85L1582 2072.64L1581.71 2072.85L1571.78 2080.06L1575.57 2068.4L1575.69 2068.05L1575.39 2067.84L1565.47 2060.63H1578.1L1578.21 2060.28L1582 2048.62L1585.79 2060.28Z" stroke="#D5C4A1" stroke-opacity="0.2"/>
<path d="M1775 1409L1779.27 1422.13H1793.07L1781.9 1430.24L1786.17 1443.37L1775 1435.26L1763.83 1443.37L1768.1 1430.24L1756.93 1422.13H1770.73L1775 1409Z" fill="#D5C4A1" fill-opacity="0.3"/>
<path d="M1778.79 1422.28L1778.9 1422.63H1791.53L1781.61 1429.84L1781.31 1430.05L1781.43 1430.4L1785.22 1442.06L1775.29 1434.85L1775 1434.64L1774.71 1434.85L1764.78 1442.06L1768.57 1430.4L1768.69 1430.05L1768.39 1429.84L1758.47 1422.63H1771.1L1771.21 1422.28L1775 1410.62L1778.79 1422.28Z" stroke="#D5C4A1" stroke-opacity="0.2"/>
<path d="M1614 1304L1618.27 1317.13H1632.07L1620.9 1325.24L1625.17 1338.37L1614 1330.26L1602.83 1338.37L1607.1 1325.24L1595.93 1317.13H1609.73L1614 1304Z" fill="#D5C4A1" fill-opacity="0.3"/>
<path d="M1617.79 1317.28L1617.9 1317.63H1630.53L1620.61 1324.84L1620.31 1325.05L1620.43 1325.4L1624.22 1337.06L1614.29 1329.85L1614 1329.64L1613.71 1329.85L1603.78 1337.06L1607.57 1325.4L1607.69 1325.05L1607.39 1324.84L1597.47 1317.63H1610.1L1610.21 1317.28L1614 1305.62L1617.79 1317.28Z" stroke="#D5C4A1" stroke-opacity="0.2"/>
<path d="M1775 1670L1779.27 1683.13H1793.07L1781.9 1691.24L1786.17 1704.37L1775 1696.26L1763.83 1704.37L1768.1 1691.24L1756.93 1683.13H1770.73L1775 1670Z" fill="#D5C4A1" fill-opacity="0.3"/>
<path d="M1778.79 1683.28L1778.9 1683.63H1791.53L1781.61 1690.84L1781.31 1691.05L1781.43 1691.4L1785.22 1703.06L1775.29 1695.85L1775 1695.64L1774.71 1695.85L1764.78 1703.06L1768.57 1691.4L1768.69 1691.05L1768.39 1690.84L1758.47 1683.63H1771.1L1771.21 1683.28L1775 1671.62L1778.79 1683.28Z" stroke="#D5C4A1" stroke-opacity="0.2"/>
<path d="M403 1371L407.266 1384.13H421.07L409.902 1392.24L414.168 1405.37L403 1397.26L391.832 1405.37L396.098 1392.24L384.93 1384.13H398.734L403 1371Z" fill="#D5C4A1" fill-opacity="0.3"/>
<path d="M406.79 1384.28L406.902 1384.63H419.531L409.608 1391.84L409.314 1392.05L409.427 1392.4L413.217 1404.06L403.294 1396.85L403 1396.64L402.706 1396.85L392.782 1404.06L396.573 1392.4L396.686 1392.05L396.392 1391.84L386.469 1384.63H399.098L399.21 1384.28L403 1372.62L406.79 1384.28Z" stroke="#D5C4A1" stroke-opacity="0.2"/>
<path d="M675 1419L679.266 1432.13H693.07L681.902 1440.24L686.168 1453.37L675 1445.26L663.832 1453.37L668.098 1440.24L656.93 1432.13H670.734L675 1419Z" fill="#D5C4A1" fill-opacity="0.3"/>
<path d="M678.79 1432.28L678.902 1432.63H691.531L681.608 1439.84L681.314 1440.05L681.427 1440.4L685.217 1452.06L675.294 1444.85L675 1444.64L674.706 1444.85L664.782 1452.06L668.573 1440.4L668.686 1440.05L668.392 1439.84L658.469 1432.63H671.098L671.21 1432.28L675 1420.62L678.79 1432.28Z" stroke="#D5C4A1" stroke-opacity="0.2"/>
<path d="M1167 1204L1171.27 1217.13H1185.07L1173.9 1225.24L1178.17 1238.37L1167 1230.26L1155.83 1238.37L1160.1 1225.24L1148.93 1217.13H1162.73L1167 1204Z" fill="#D5C4A1" fill-opacity="0.3"/>
<path d="M1170.79 1217.28L1170.9 1217.63H1183.53L1173.61 1224.84L1173.31 1225.05L1173.43 1225.4L1177.22 1237.06L1167.29 1229.85L1167 1229.64L1166.71 1229.85L1156.78 1237.06L1160.57 1225.4L1160.69 1225.05L1160.39 1224.84L1150.47 1217.63H1163.1L1163.21 1217.28L1167 1205.62L1170.79 1217.28Z" stroke="#D5C4A1" stroke-opacity="0.2"/>
<path d="M285 1284L289.266 1297.13H303.07L291.902 1305.24L296.168 1318.37L285 1310.26L273.832 1318.37L278.098 1305.24L266.93 1297.13H280.734L285 1284Z" fill="#D5C4A1" fill-opacity="0.3"/>
<path d="M288.79 1297.28L288.902 1297.63H301.531L291.608 1304.84L291.314 1305.05L291.427 1305.4L295.217 1317.06L285.294 1309.85L285 1309.64L284.706 1309.85L274.782 1317.06L278.573 1305.4L278.686 1305.05L278.392 1304.84L268.469 1297.63H281.098L281.21 1297.28L285 1285.62L288.79 1297.28Z" stroke="#D5C4A1" stroke-opacity="0.2"/>
<path d="M346 1157L350.266 1170.13H364.07L352.902 1178.24L357.168 1191.37L346 1183.26L334.832 1191.37L339.098 1178.24L327.93 1170.13H341.734L346 1157Z" fill="#D5C4A1" fill-opacity="0.3"/>
<path d="M349.79 1170.28L349.902 1170.63H362.531L352.608 1177.84L352.314 1178.05L352.427 1178.4L356.217 1190.06L346.294 1182.85L346 1182.64L345.706 1182.85L335.782 1190.06L339.573 1178.4L339.686 1178.05L339.392 1177.84L329.469 1170.63H342.098L342.21 1170.28L346 1158.62L349.79 1170.28Z" stroke="#D5C4A1" stroke-opacity="0.2"/>
<path d="M115 1163L119.266 1176.13H133.07L121.902 1184.24L126.168 1197.37L115 1189.26L103.832 1197.37L108.098 1184.24L96.9299 1176.13H110.734L115 1163Z" fill="#D5C4A1" fill-opacity="0.3"/>
<path d="M118.79 1176.28L118.902 1176.63H131.531L121.608 1183.84L121.314 1184.05L121.427 1184.4L125.217 1196.06L115.294 1188.85L115 1188.64L114.706 1188.85L104.782 1196.06L108.573 1184.4L108.686 1184.05L108.392 1183.84L98.4688 1176.63H111.098L111.21 1176.28L115 1164.62L118.79 1176.28Z" stroke="#D5C4A1" stroke-opacity="0.2"/>
<path d="M170.5 1259L173.306 1267.64H182.388L175.041 1272.98L177.847 1281.61L170.5 1276.27L163.153 1281.61L165.959 1272.98L158.612 1267.64H167.694L170.5 1259Z" fill="#D5C4A1" fill-opacity="0.3"/>
<path d="M172.831 1267.79L172.943 1268.14H180.849L174.747 1272.57L174.453 1272.78L174.565 1273.13L176.896 1280.3L170.794 1275.87L170.5 1275.66L170.206 1275.87L164.104 1280.3L166.435 1273.13L166.547 1272.78L166.253 1272.57L160.151 1268.14H168.057L168.169 1267.79L170.5 1260.62L172.831 1267.79Z" stroke="#D5C4A1" stroke-opacity="0.2"/>
<path d="M377.5 1138L380.306 1146.64H389.388L382.041 1151.98L384.847 1160.61L377.5 1155.27L370.153 1160.61L372.959 1151.98L365.612 1146.64H374.694L377.5 1138Z" fill="#D5C4A1" fill-opacity="0.3"/>
<path d="M379.831 1146.79L379.943 1147.14H387.849L381.747 1151.57L381.453 1151.78L381.565 1152.13L383.896 1159.3L377.794 1154.87L377.5 1154.66L377.206 1154.87L371.104 1159.3L373.435 1152.13L373.547 1151.78L373.253 1151.57L367.151 1147.14H375.057L375.169 1146.79L377.5 1139.62L379.831 1146.79Z" stroke="#D5C4A1" stroke-opacity="0.2"/>
<path d="M326.5 1200L329.306 1208.64H338.388L331.041 1213.98L333.847 1222.61L326.5 1217.27L319.153 1222.61L321.959 1213.98L314.612 1208.64H323.694L326.5 1200Z" fill="#D5C4A1" fill-opacity="0.3"/>
<path d="M328.831 1208.79L328.943 1209.14H336.849L330.747 1213.57L330.453 1213.78L330.565 1214.13L332.896 1221.3L326.794 1216.87L326.5 1216.66L326.206 1216.87L320.104 1221.3L322.435 1214.13L322.547 1213.78L322.253 1213.57L316.151 1209.14H324.057L324.169 1208.79L326.5 1201.62L328.831 1208.79Z" stroke="#D5C4A1" stroke-opacity="0.2"/>
<path d="M158.5 1169L161.306 1177.64H170.388L163.041 1182.98L165.847 1191.61L158.5 1186.27L151.153 1191.61L153.959 1182.98L146.612 1177.64H155.694L158.5 1169Z" fill="#D5C4A1" fill-opacity="0.3"/>
<path d="M160.831 1177.79L160.943 1178.14H168.849L162.747 1182.57L162.453 1182.78L162.565 1183.13L164.896 1190.3L158.794 1185.87L158.5 1185.66L158.206 1185.87L152.104 1190.3L154.435 1183.13L154.547 1182.78L154.253 1182.57L148.151 1178.14H156.057L156.169 1177.79L158.5 1170.62L160.831 1177.79Z" stroke="#D5C4A1" stroke-opacity="0.2"/>
<path d="M194.5 1163L197.306 1171.64H206.388L199.041 1176.98L201.847 1185.61L194.5 1180.27L187.153 1185.61L189.959 1176.98L182.612 1171.64H191.694L194.5 1163Z" fill="#D5C4A1" fill-opacity="0.3"/>
<path d="M196.831 1171.79L196.943 1172.14H204.849L198.747 1176.57L198.453 1176.78L198.565 1177.13L200.896 1184.3L194.794 1179.87L194.5 1179.66L194.206 1179.87L188.104 1184.3L190.435 1177.13L190.547 1176.78L190.253 1176.57L184.151 1172.14H192.057L192.169 1171.79L194.5 1164.62L196.831 1171.79Z" stroke="#D5C4A1" stroke-opacity="0.2"/>
<path d="M230.5 1175L233.306 1183.64H242.388L235.041 1188.98L237.847 1197.61L230.5 1192.27L223.153 1197.61L225.959 1188.98L218.612 1183.64H227.694L230.5 1175Z" fill="#D5C4A1" fill-opacity="0.3"/>
<path d="M232.831 1183.79L232.943 1184.14H240.849L234.747 1188.57L234.453 1188.78L234.565 1189.13L236.896 1196.3L230.794 1191.87L230.5 1191.66L230.206 1191.87L224.104 1196.3L226.435 1189.13L226.547 1188.78L226.253 1188.57L220.151 1184.14H228.057L228.169 1183.79L230.5 1176.62L232.831 1183.79Z" stroke="#D5C4A1" stroke-opacity="0.2"/>
<path d="M1314 1138L1318.27 1151.13H1332.07L1320.9 1159.24L1325.17 1172.37L1314 1164.26L1302.83 1172.37L1307.1 1159.24L1295.93 1151.13H1309.73L1314 1138Z" fill="#D5C4A1" fill-opacity="0.3"/>
<path d="M1317.79 1151.28L1317.9 1151.63H1330.53L1320.61 1158.84L1320.31 1159.05L1320.43 1159.4L1324.22 1171.06L1314.29 1163.85L1314 1163.64L1313.71 1163.85L1303.78 1171.06L1307.57 1159.4L1307.69 1159.05L1307.39 1158.84L1297.47 1151.63H1310.1L1310.21 1151.28L1314 1139.62L1317.79 1151.28Z" stroke="#D5C4A1" stroke-opacity="0.2"/>
<path d="M1252.5 1290L1255.76 1300.02L1266.29 1300.02L1257.77 1306.21L1261.02 1316.23L1252.5 1310.04L1243.98 1316.23L1247.23 1306.21L1238.71 1300.02L1249.24 1300.02L1252.5 1290Z" fill="#D5C4A1" fill-opacity="0.3"/>
<path d="M1255.28 1300.17L1255.39 1300.52H1264.75L1257.47 1305.81L1257.18 1306.02L1257.29 1306.37L1260.07 1314.92L1252.79 1309.63L1252.5 1309.42L1252.21 1309.63L1244.93 1314.92L1247.71 1306.37L1247.82 1306.02L1247.53 1305.81L1240.25 1300.52H1249.61L1249.72 1300.17L1252.5 1291.62L1255.28 1300.17Z" stroke="#D5C4A1" stroke-opacity="0.2"/>
<path d="M1121.5 1176L1124.76 1186.02L1135.29 1186.02L1126.77 1192.21L1130.02 1202.23L1121.5 1196.04L1112.98 1202.23L1116.23 1192.21L1107.71 1186.02L1118.24 1186.02L1121.5 1176Z" fill="#D5C4A1" fill-opacity="0.3"/>
<path d="M1124.28 1186.17L1124.39 1186.52H1133.75L1126.47 1191.81L1126.18 1192.02L1126.29 1192.37L1129.07 1200.92L1121.79 1195.63L1121.5 1195.42L1121.21 1195.63L1113.93 1200.92L1116.71 1192.37L1116.82 1192.02L1116.53 1191.81L1109.25 1186.52H1118.61L1118.72 1186.17L1121.5 1177.62L1124.28 1186.17Z" stroke="#D5C4A1" stroke-opacity="0.2"/>
<path d="M1866 1896L1870.27 1909.13H1884.07L1872.9 1917.24L1877.17 1930.37L1866 1922.26L1854.83 1930.37L1859.1 1917.24L1847.93 1909.13H1861.73L1866 1896Z" fill="#D5C4A1" fill-opacity="0.3"/>
<path d="M1869.79 1909.28L1869.9 1909.63H1882.53L1872.61 1916.84L1872.31 1917.05L1872.43 1917.4L1876.22 1929.06L1866.29 1921.85L1866 1921.64L1865.71 1921.85L1855.78 1929.06L1859.57 1917.4L1859.69 1917.05L1859.39 1916.84L1849.47 1909.63H1862.1L1862.21 1909.28L1866 1897.62L1869.79 1909.28Z" stroke="#D5C4A1" stroke-opacity="0.2"/>
<path d="M427 1651L431.266 1664.13H445.07L433.902 1672.24L438.168 1685.37L427 1677.26L415.832 1685.37L420.098 1672.24L408.93 1664.13H422.734L427 1651Z" fill="#D5C4A1" fill-opacity="0.3"/>
<path d="M430.79 1664.28L430.902 1664.63H443.531L433.608 1671.84L433.314 1672.05L433.427 1672.4L437.217 1684.06L427.294 1676.85L427 1676.64L426.706 1676.85L416.782 1684.06L420.573 1672.4L420.686 1672.05L420.392 1671.84L410.469 1664.63H423.098L423.21 1664.28L427 1652.62L430.79 1664.28Z" stroke="#D5C4A1" stroke-opacity="0.2"/>
<path d="M329 1629L333.266 1642.13H347.07L335.902 1650.24L340.168 1663.37L329 1655.26L317.832 1663.37L322.098 1650.24L310.93 1642.13H324.734L329 1629Z" fill="#D5C4A1" fill-opacity="0.3"/>
<path d="M332.79 1642.28L332.902 1642.63H345.531L335.608 1649.84L335.314 1650.05L335.427 1650.4L339.217 1662.06L329.294 1654.85L329 1654.64L328.706 1654.85L318.782 1662.06L322.573 1650.4L322.686 1650.05L322.392 1649.84L312.469 1642.63H325.098L325.21 1642.28L329 1630.62L332.79 1642.28Z" stroke="#D5C4A1" stroke-opacity="0.2"/>
<path d="M403 2025L407.266 2038.13H421.07L409.902 2046.24L414.168 2059.37L403 2051.26L391.832 2059.37L396.098 2046.24L384.93 2038.13H398.734L403 2025Z" fill="#D5C4A1" fill-opacity="0.3"/>
<path d="M406.79 2038.28L406.902 2038.63H419.531L409.608 2045.84L409.314 2046.05L409.427 2046.4L413.217 2058.06L403.294 2050.85L403 2050.64L402.706 2050.85L392.782 2058.06L396.573 2046.4L396.686 2046.05L396.392 2045.84L386.469 2038.63H399.098L399.21 2038.28L403 2026.62L406.79 2038.28Z" stroke="#D5C4A1" stroke-opacity="0.2"/>
<path d="M53 1864L57.2658 1877.13H71.0701L59.9022 1885.24L64.1679 1898.37L53 1890.26L41.8321 1898.37L46.0978 1885.24L34.9299 1877.13H48.7342L53 1864Z" fill="#D5C4A1" fill-opacity="0.3"/>
<path d="M56.79 1877.28L56.9023 1877.63H69.5312L59.6084 1884.84L59.3145 1885.05L59.4268 1885.4L63.2168 1897.06L53.2939 1889.85L53 1889.64L52.7061 1889.85L42.7822 1897.06L46.5732 1885.4L46.6855 1885.05L46.3916 1884.84L36.4688 1877.63H49.0977L49.21 1877.28L53 1865.62L56.79 1877.28Z" stroke="#D5C4A1" stroke-opacity="0.2"/>
<path d="M1640.5 1335L1746.5 1407.5M1503 1467L1592.5 1547.5M1498 1427L1592.5 1341M1646 1547.5L1756 1454M1751.5 1672L1640.5 1586.5M1570.5 2041L1515.5 1899M262.5 1299L187.5 1277M427.5 1396L650 1434.5M445.5 1650L655.5 1462.5M79.5 1896.5L375.5 2036M404.5 2010.5L427.5 1707M73 1860L307 1668.5M353 1655.5L404.5 1668.5M1857.5 1887.5L1791.5 1714M807 2042L853 1967.5M1549.5 2060.5L1414 2032.5M1399 1994.5L1485 1892.5M880 1954.5L989 1987.5M1085 2033L1101 2056.5M1026.5 2005L1050.5 2013.5M1186.5 1243L1237.5 1291.5M1138.5 1199L1149.5 1208.5M1022 1173L1097 1185.5M1187.5 1211L1298 1166M339 1619L395 1424M162 1260L120 1201.5M145.5 1185L132 1186.5M216 1186.5L206 1180M181.5 1179L172.5 1182M331.5 1179L242.5 1189M324.5 1226L294.5 1290M336 1193.5L332.5 1204M368 1154.5L358 1164" stroke="#D5C4A1" stroke-opacity="0.2" stroke-width="5"/>
<defs>
<clipPath id="paint2_diamond_91_73_clip_path"><path d="M960 694C723 694 363 634 363 564.567C363 517.446 500.711 462.172 682.363 431.514C686.31 421.42 690.792 411.594 695.774 402.07C695.656 402.087 695.539 402.104 695.422 402.122C470.48 435.409 251 504.257 251 564.567C251 647.862 656.973 725.548 960 730C1260.49 730 1666 645.391 1666 564.568C1666 509.962 1458.97 436.642 1224.16 401.881C1226.45 406.27 1228.63 410.724 1230.71 415.238C1233.21 420.667 1235.56 426.183 1237.74 431.782C1416.83 462.494 1551 517.584 1551 564.568C1551 634.001 1197 694 960 694Z"/></clipPath><clipPath id="paint4_diamond_91_73_clip_path"><path d="M191 564.568C191 684.873 695.84 761 960 761C1224.16 761 1729 684.844 1729 564.54C1729 474.549 1465.46 404.181 1207.92 374.433C1213.8 383.258 1219.23 392.419 1224.16 401.881C1458.97 436.642 1666 509.962 1666 564.568C1666 645.391 1260.49 730 960 730C656.973 725.548 251 647.862 251 564.567C251 504.257 470.48 435.409 695.422 402.122C695.539 402.104 695.656 402.087 695.774 402.07C700.759 392.54 706.244 383.313 712.195 374.424C454.619 404.173 191 474.564 191 564.568Z"/></clipPath><radialGradient id="paint0_radial_91_73" cx="0" cy="0" r="1" gradientUnits="userSpaceOnUse" gradientTransform="translate(960 582.5) rotate(-90) scale(501)">
<stop offset="0.576107" stop-color="#282828"/>
<stop offset="0.846038" stop-color="#9D3629"/>
</radialGradient>
<radialGradient id="paint1_radial_91_73" cx="0" cy="0" r="1" gradientUnits="userSpaceOnUse" gradientTransform="translate(960 207) rotate(90) scale(756.5 2241.81)">
<stop stop-color="#806F64"/>
<stop offset="0.697312" stop-color="#282828"/>
</radialGradient>
<linearGradient id="paint2_diamond_91_73" x1="0" y1="0" x2="500" y2="500" gradientUnits="userSpaceOnUse">
<stop offset="0.648506" stop-color="#282828"/>
<stop offset="0.667247" stop-color="#806F64" stop-opacity="0"/>
</linearGradient>
<radialGradient id="paint3_radial_91_73" cx="0" cy="0" r="1" gradientUnits="userSpaceOnUse" gradientTransform="translate(960 207) rotate(90) scale(756.5 2241.81)">
<stop stop-color="#655952"/>
<stop offset="0.697312" stop-color="#282828"/>
</radialGradient>
<linearGradient id="paint4_diamond_91_73" x1="0" y1="0" x2="500" y2="500" gradientUnits="userSpaceOnUse">
<stop offset="0.648506" stop-color="#282828"/>
<stop offset="0.667247" stop-color="#806F64" stop-opacity="0"/>
</linearGradient>
</defs>
</svg>
