<svg width="1079" height="1079" viewBox="0 0 1079 1079" fill="none" xmlns="http://www.w3.org/2000/svg">
<circle cx="539.5" cy="539.5" r="539.5" fill="url(#paint0_linear_249_241)"/>
<path fill-rule="evenodd" clip-rule="evenodd" d="M962.097 204.098C1017.93 274.355 1056.62 358.853 1071.82 451.261C1070.38 450.512 1068.89 449.747 1067.35 448.971C1045.72 438.001 1017.98 425.837 989.888 418.087C960.457 409.966 939.373 409.147 926.989 411.819C919.928 413.342 915.517 415.145 909.843 426.367C873.731 497.784 815.596 534.908 750.667 543.937C700.342 550.935 650.456 539.76 621.05 532.879C616.321 555.39 607.472 577.597 592.881 598.001C568.502 632.093 535.643 650.597 506.109 660.414C456.702 676.835 398.964 673.688 364.184 671.792C362.681 671.71 361.22 671.631 359.805 671.555C328.534 669.885 308.232 669.041 294.239 669.663C283.401 722.938 257.158 766.328 219.339 797.776C180.161 830.354 135.296 844.593 98.9062 850.924C56.5075 791.049 26.007 722.152 10.8486 647.679C12.6932 647.886 14.69 648.088 16.8177 648.272C30.7863 649.48 47.2424 649.631 62.181 647.197C77.6154 644.682 84.6894 640.527 86.9883 638.615C87.7687 637.966 88.2809 637.388 88.8821 636.25C89.5334 635.017 91.2729 631.23 92.2166 623.174C96.7182 584.744 111.716 547.791 140.853 518.456C168.792 490.327 202.015 477.001 229.573 470.372C275.16 459.406 328.055 462.421 362.149 464.364L362.156 464.364C365.21 464.538 368.114 464.704 370.847 464.85C390.565 465.903 406.011 466.563 419.344 466.211C421.309 441.575 427.128 414.928 441.147 390.067C462.126 352.867 495.195 330.611 530.63 321.452C561.166 313.558 589.982 316.223 608.572 318.926C626.274 321.501 644.736 325.826 658.659 329.087L658.66 329.087C659.888 329.375 661.081 329.655 662.234 329.924C696.715 337.969 712.168 340.115 721.549 338.988C722.396 337.824 723.623 335.911 725.116 332.96C760.802 262.384 819.302 223.287 883.339 209.473C910.109 203.698 936.773 202.512 962.097 204.098ZM625.914 480.724C625.918 480.697 625.919 480.683 625.918 480.682C625.916 480.68 625.898 480.77 625.87 480.96C625.893 480.848 625.907 480.768 625.914 480.724ZM573.393 523.212C573.392 523.21 573.46 523.21 573.603 523.215C573.466 523.216 573.395 523.213 573.393 523.212ZM276.747 671.971C276.746 671.971 276.786 671.956 276.871 671.93C276.79 671.959 276.748 671.972 276.747 671.971ZM720.261 340.528C720.259 340.524 720.32 340.46 720.448 340.349C720.327 340.477 720.262 340.532 720.261 340.528Z" fill="url(#paint1_linear_249_241)"/>
<path fill-rule="evenodd" clip-rule="evenodd" d="M777.839 55.3672C874.955 103.268 955.574 179.53 1008.88 273.339C988.315 263.264 963.216 252.656 937.831 245.652C908.4 237.532 887.316 236.713 874.932 239.384C867.871 240.908 863.46 242.71 857.786 253.933C821.674 325.349 763.539 362.473 698.61 371.502C648.285 378.5 598.399 367.325 568.993 360.445C564.264 382.956 555.415 405.163 540.824 425.567C516.445 459.659 483.586 478.163 454.052 487.979C404.645 504.401 346.907 501.254 312.127 499.358C310.624 499.276 309.163 499.197 307.749 499.121C276.477 497.45 256.175 496.606 242.182 497.229C231.344 550.503 205.101 593.893 167.282 625.342C126.864 658.952 80.3922 673.042 43.4181 679.068C35.1395 680.417 26.9904 681.418 19.0567 682.138C6.63306 636.703 0 588.876 0 539.5C0 517.894 1.27016 496.584 3.73987 475.641C5.89054 475.397 8.02233 475.105 10.1241 474.763C25.5585 472.247 32.6325 468.092 34.9313 466.181C35.7118 465.532 36.224 464.953 36.8252 463.816C37.4765 462.583 39.216 458.796 40.1596 450.74C44.6613 412.31 59.6593 375.357 88.7963 346.021C116.735 317.892 149.958 304.566 177.516 297.938C223.103 286.972 275.998 289.987 310.092 291.93L310.099 291.93C313.153 292.104 316.057 292.27 318.79 292.416C338.508 293.469 353.954 294.128 367.287 293.777C369.252 269.141 375.071 242.494 389.09 217.633C410.069 180.432 443.138 158.177 478.573 149.017C509.11 141.124 537.925 143.789 556.516 146.492C574.217 149.067 592.679 153.391 606.602 156.653L606.603 156.653C607.831 156.941 609.024 157.22 610.177 157.489C644.658 165.535 660.111 167.68 669.492 166.554C670.339 165.39 671.566 163.477 673.059 160.525C698.487 110.238 735.496 75.9322 777.839 55.3672ZM573.861 308.248C573.863 308.25 573.849 308.345 573.813 308.526C573.841 308.336 573.859 308.246 573.861 308.248ZM521.546 350.781C521.403 350.775 521.335 350.776 521.336 350.777C521.337 350.778 521.36 350.779 521.405 350.78C521.44 350.781 521.487 350.781 521.546 350.781ZM224.69 499.537C224.689 499.536 224.729 499.522 224.814 499.495C224.733 499.524 224.691 499.538 224.69 499.537ZM668.391 167.915C668.263 168.025 668.202 168.089 668.204 168.094C668.205 168.096 668.22 168.084 668.25 168.056C668.282 168.027 668.329 167.98 668.391 167.915Z" fill="url(#paint2_linear_249_241)"/>
<path fill-rule="evenodd" clip-rule="evenodd" d="M426.252 308.496C489.621 283.672 535.804 235.737 565.552 171.682C571.374 172.539 578.762 173.726 588.062 175.379C590.118 175.744 592.348 176.15 594.737 176.585C624.755 182.054 680.007 192.119 735.451 184.053C786.534 176.622 834.69 155.134 875.102 117.061C782.985 43.7826 666.356 0 539.501 0C242.069 0 0.853451 240.691 0.00292969 537.923C87.0677 516.443 217.741 463.344 272.919 326.344C276.51 326.412 280.708 326.519 285.595 326.684C286.926 326.729 288.363 326.783 289.901 326.84C316.157 327.819 371.648 329.887 426.252 308.496Z" fill="url(#paint3_linear_249_241)"/>
<path fill-rule="evenodd" clip-rule="evenodd" d="M1078.85 552.482C1078.95 548.167 1079 543.84 1079 539.501C1079 466.85 1064.64 397.554 1038.6 334.295C1036.05 334.303 1033.49 334.353 1030.92 334.449C998.247 335.666 963.113 344.259 930.476 365.432C897.775 386.647 873.507 416.65 856.698 451.443C851.24 462.742 848.713 462.939 847.152 463.061C846.931 463.078 846.729 463.094 846.541 463.139C835.254 465.87 818.943 465.241 780.29 461.639C778.75 461.495 777.132 461.341 775.44 461.179L775.41 461.176C745.726 458.337 693.394 453.331 644.689 468.864C615.541 478.159 586.767 494.679 562.589 521.416C538.994 547.507 523.858 578.795 514.452 612.015C513.884 614.021 513.354 615.718 512.875 617.142C507.217 617.076 497.449 616.575 481.222 614.736C478.761 614.457 475.999 614.121 472.972 613.752C447.45 610.64 403.096 605.233 361.38 612.813C303.056 623.411 249.974 657.563 217.375 723.388C199.606 759.268 159.98 787.348 109.808 806.979C98.5224 811.394 87.5425 815.045 77.3716 818.039C116.074 882.113 167.725 937.486 228.699 980.534C290.619 949.768 361.148 898.993 402.526 815.952C411.544 815.25 425.335 816.728 457.912 820.42C458.506 820.487 459.112 820.556 459.731 820.626L459.879 820.643C487.878 823.831 540.662 829.84 591.229 811.245C654.769 787.879 694.546 735.776 713.621 668.412C713.954 667.236 714.276 666.187 714.583 665.253C716.325 665.157 718.436 665.093 720.965 665.095C731.378 665.101 743.444 666.102 761.084 667.746C762.94 667.919 764.894 668.106 766.939 668.302C797.104 671.196 847.051 675.987 895.213 664.336C956.406 649.532 1009.65 610.692 1043.08 541.507C1050.29 542.277 1062.22 545.244 1078.85 552.482ZM717.229 658.871C717.238 658.856 717.243 658.848 717.243 658.847C717.242 658.847 717.221 658.877 717.182 658.942C717.203 658.911 717.219 658.887 717.229 658.871ZM1045.71 536.991C1045.71 536.993 1045.68 537.027 1045.62 537.091C1045.68 537.021 1045.7 536.989 1045.71 536.991ZM404.739 812.005C404.739 812.005 404.731 812.016 404.714 812.037C404.731 812.015 404.739 812.005 404.739 812.005Z" fill="url(#paint4_linear_249_241)"/>
<path fill-rule="evenodd" clip-rule="evenodd" d="M1002.04 817.356C1050.9 736.199 1079 641.131 1079 539.499C1079 526.429 1078.53 513.468 1077.62 500.631C1053.49 504.798 1028.82 513.511 1005.43 528.684C972.732 549.899 948.463 579.902 931.655 614.695C926.196 625.994 923.67 626.191 922.109 626.313C921.888 626.33 921.686 626.346 921.498 626.391C910.211 629.122 893.9 628.493 855.247 624.891C853.707 624.747 852.089 624.593 850.397 624.431L850.367 624.428C820.683 621.589 768.351 616.583 719.646 632.116C690.498 641.411 661.724 657.931 637.545 684.668C613.95 710.759 598.815 742.047 589.409 775.267C588.841 777.273 588.311 778.97 587.832 780.394C582.174 780.328 572.405 779.827 556.179 777.988C553.717 777.709 550.956 777.373 547.929 777.004C522.407 773.892 478.053 768.485 436.337 776.065C378.012 786.663 324.931 820.815 292.332 886.64C276.903 917.793 244.998 943.066 204.019 962.034C265.171 1010.65 337.118 1046.27 415.683 1064.72C439.373 1040.93 460.798 1012.69 477.483 979.204C486.501 978.502 500.292 979.98 532.869 983.672C533.463 983.739 534.068 983.808 534.686 983.878L534.836 983.895C562.835 987.083 615.618 993.092 666.185 974.497C729.726 951.131 769.503 899.028 788.578 831.664C788.911 830.488 789.233 829.439 789.54 828.505C791.282 828.409 793.393 828.345 795.922 828.347C806.335 828.353 818.401 829.354 836.04 830.998C837.897 831.171 839.851 831.358 841.896 831.554C872.061 834.448 922.008 839.239 970.17 827.588C981.068 824.951 991.713 821.553 1002.04 817.356ZM792.199 822.099C792.2 822.1 792.181 822.133 792.139 822.194C792.178 822.129 792.199 822.099 792.199 822.099ZM479.696 975.257C479.696 975.257 479.688 975.268 479.671 975.289C479.687 975.267 479.696 975.257 479.696 975.257Z" fill="url(#paint5_linear_249_241)"/>
<path fill-rule="evenodd" clip-rule="evenodd" d="M1057.41 691.111C991.896 915.262 784.82 1079 539.5 1079C480.665 1079 424.029 1069.58 371.018 1052.17C387.117 1002.19 418.427 961.438 468.222 937.432C519.842 912.545 578.265 914.396 609.735 915.393C610.832 915.427 611.897 915.461 612.927 915.493C651.618 916.676 668.405 916.905 679.116 914.6C679.373 913.841 679.65 912.957 679.94 911.934C689.024 879.854 704.166 846.703 731.07 820.196C759.927 791.763 794.247 778.869 826.537 775.352C855.787 772.165 882.613 776.734 900.941 780.663C912.442 783.128 927.305 787.012 938.681 789.985L938.682 789.985C943.498 791.244 947.688 792.339 950.733 793.093C981.423 800.7 989.309 798.947 991.138 798.319C991.332 798.252 991.714 798.112 992.439 797.64C993.198 797.146 994.859 795.943 997.303 793.376C1002.36 788.059 1010.87 776.763 1020.75 754.471C1030.77 731.833 1042.95 710.308 1057.41 691.111ZM677.488 918.468C677.487 918.466 677.52 918.405 677.594 918.295C677.527 918.416 677.49 918.471 677.488 918.468Z" fill="url(#paint6_linear_249_241)"/>
<defs>
<linearGradient id="paint0_linear_249_241" x1="1079" y1="208.766" x2="-5.94606e-05" y2="870.234" gradientUnits="userSpaceOnUse">
<stop stop-color="#FE8019"/>
<stop offset="1" stop-color="#282828"/>
</linearGradient>
<linearGradient id="paint1_linear_249_241" x1="-421" y1="1080" x2="1499" y2="0.000173746" gradientUnits="userSpaceOnUse">
<stop offset="0.3" stop-color="#282828"/>
<stop offset="1" stop-color="#FABD2F"/>
</linearGradient>
<linearGradient id="paint2_linear_249_241" x1="-421" y1="1080" x2="1499" y2="-2.32364e-05" gradientUnits="userSpaceOnUse">
<stop offset="0.3" stop-color="#282828"/>
<stop offset="1" stop-color="#B16286"/>
</linearGradient>
<linearGradient id="paint3_linear_249_241" x1="-421" y1="1080" x2="1499" y2="0.000167991" gradientUnits="userSpaceOnUse">
<stop offset="0.3" stop-color="#282828"/>
<stop offset="1" stop-color="#D3869B"/>
</linearGradient>
<linearGradient id="paint4_linear_249_241" x1="-421" y1="1080" x2="1499" y2="0.000786728" gradientUnits="userSpaceOnUse">
<stop offset="0.3" stop-color="#282828"/>
<stop offset="1" stop-color="#98971A"/>
</linearGradient>
<linearGradient id="paint5_linear_249_241" x1="-421" y1="1080" x2="1499" y2="-0.000525568" gradientUnits="userSpaceOnUse">
<stop offset="0.3" stop-color="#282828"/>
<stop offset="1" stop-color="#689D6A"/>
</linearGradient>
<linearGradient id="paint6_linear_249_241" x1="-421" y1="1080" x2="1499" y2="0.000632368" gradientUnits="userSpaceOnUse">
<stop offset="0.3" stop-color="#282828"/>
<stop offset="1" stop-color="#75B478"/>
</linearGradient>
</defs>
</svg>
