<?xml version="1.0" encoding="UTF-8" ?>
<svg version="1.1" width="27" height="28" xmlns="http://www.w3.org/2000/svg" shape-rendering="crispEdges">
<rect x="19" y="0" width="2" height="4" fill="#9F051D" />
<rect x="6" y="1" width="1" height="2" fill="#9F051D" />
<rect x="13" y="1" width="2" height="2" fill="#9F051D" />
<rect x="17" y="1" width="2" height="1" fill="#9F051D" />
<rect x="5" y="2" width="1" height="3" fill="#9F051D" />
<rect x="15" y="2" width="3" height="1" fill="#9F051D" />
<rect x="18" y="2" width="1" height="15" fill="#D43C0D" />
<rect x="4" y="3" width="1" height="3" fill="#9F051D" />
<rect x="6" y="3" width="1" height="6" fill="#F45923" />
<rect x="7" y="3" width="2" height="1" fill="#9F051D" />
<rect x="13" y="3" width="1" height="2" fill="#9F051D" />
<rect x="14" y="3" width="4" height="5" fill="#D43C0D" />
<rect x="7" y="4" width="1" height="7" fill="#F45923" />
<rect x="8" y="4" width="1" height="1" fill="#9F051D" />
<rect x="12" y="4" width="1" height="2" fill="#9F051D" />
<rect x="19" y="4" width="1" height="5" fill="#D43C0D" />
<rect x="20" y="4" width="1" height="2" fill="#9F051D" />
<rect x="3" y="5" width="1" height="5" fill="#9F051D" />
<rect x="5" y="5" width="1" height="3" fill="#E0C51C" />
<rect x="8" y="5" width="1" height="8" fill="#F45923" />
<rect x="9" y="5" width="1" height="2" fill="#9F051D" />
<rect x="11" y="5" width="1" height="2" fill="#9F051D" />
<rect x="13" y="5" width="1" height="7" fill="#D43C0D" />
<rect x="4" y="6" width="1" height="13" fill="#E0C51C" />
<rect x="10" y="6" width="1" height="1" fill="#9F051D" />
<rect x="12" y="6" width="1" height="2" fill="#F45923" />
<rect x="20" y="6" width="1" height="2" fill="#D43C0D" />
<rect x="21" y="6" width="2" height="2" fill="#9F051D" />
<rect x="9" y="7" width="3" height="8" fill="#F45923" />
<rect x="5" y="8" width="1" height="12" fill="#F45923" />
<rect x="12" y="8" width="1" height="5" fill="#D43C0D" />
<rect x="14" y="8" width="1" height="2" fill="#D43C0D" />
<rect x="15" y="8" width="2" height="1" fill="#9F051D" />
<rect x="17" y="8" width="1" height="9" fill="#D43C0D" />
<rect x="20" y="8" width="2" height="1" fill="#9F051D" />
<rect x="1" y="9" width="2" height="1" fill="#9F051D" />
<rect x="6" y="9" width="1" height="3" fill="#9F051D" />
<rect x="15" y="9" width="1" height="2" fill="#9F051D" />
<rect x="16" y="9" width="1" height="8" fill="#D43C0D" />
<rect x="19" y="9" width="2" height="1" fill="#9F051D" />
<rect x="1" y="10" width="1" height="1" fill="#9F051D" />
<rect x="2" y="10" width="2" height="1" fill="#E0C51C" />
<rect x="14" y="10" width="1" height="2" fill="#9F051D" />
<rect x="19" y="10" width="1" height="3" fill="#9F051D" />
<rect x="2" y="11" width="1" height="2" fill="#9F051D" />
<rect x="3" y="11" width="1" height="1" fill="#E0C51C" />
<rect x="7" y="11" width="1" height="3" fill="#9F051D" />
<rect x="15" y="11" width="1" height="6" fill="#D43C0D" />
<rect x="3" y="12" width="1" height="3" fill="#9F051D" />
<rect x="6" y="12" width="1" height="8" fill="#F45923" />
<rect x="13" y="12" width="1" height="2" fill="#9F051D" />
<rect x="14" y="12" width="1" height="6" fill="#D43C0D" />
<rect x="20" y="12" width="4" height="1" fill="#9F051D" />
<rect x="8" y="13" width="1" height="3" fill="#9F051D" />
<rect x="12" y="13" width="1" height="3" fill="#9F051D" />
<rect x="19" y="13" width="4" height="3" fill="#D43C0D" />
<rect x="23" y="13" width="2" height="1" fill="#9F051D" />
<rect x="7" y="14" width="1" height="6" fill="#F45923" />
<rect x="13" y="14" width="1" height="4" fill="#D43C0D" />
<rect x="23" y="14" width="1" height="3" fill="#D43C0D" />
<rect x="24" y="14" width="3" height="1" fill="#9F051D" />
<rect x="0" y="15" width="3" height="1" fill="#9F051D" />
<rect x="3" y="15" width="1" height="3" fill="#E0C51C" />
<rect x="9" y="15" width="1" height="3" fill="#9F051D" />
<rect x="10" y="15" width="1" height="2" fill="#F45923" />
<rect x="11" y="15" width="1" height="4" fill="#9F051D" />
<rect x="24" y="15" width="1" height="1" fill="#D43C0D" />
<rect x="25" y="15" width="1" height="2" fill="#9F051D" />
<rect x="0" y="16" width="1" height="1" fill="#9F051D" />
<rect x="1" y="16" width="2" height="1" fill="#E0C51C" />
<rect x="8" y="16" width="1" height="4" fill="#F45923" />
<rect x="12" y="16" width="1" height="2" fill="#D43C0D" />
<rect x="19" y="16" width="1" height="1" fill="#9F051D" />
<rect x="20" y="16" width="3" height="4" fill="#D43C0D" />
<rect x="24" y="16" width="1" height="2" fill="#9F051D" />
<rect x="1" y="17" width="1" height="1" fill="#9F051D" />
<rect x="2" y="17" width="1" height="1" fill="#E0C51C" />
<rect x="10" y="17" width="1" height="6" fill="#9F051D" />
<rect x="15" y="17" width="4" height="1" fill="#9F051D" />
<rect x="19" y="17" width="1" height="3" fill="#D43C0D" />
<rect x="23" y="17" width="1" height="4" fill="#9F051D" />
<rect x="2" y="18" width="2" height="1" fill="#9F051D" />
<rect x="9" y="18" width="1" height="2" fill="#F45923" />
<rect x="12" y="18" width="4" height="1" fill="#9F051D" />
<rect x="16" y="18" width="3" height="3" fill="#D43C0D" />
<rect x="3" y="19" width="2" height="1" fill="#9F051D" />
<rect x="11" y="19" width="5" height="3" fill="#D43C0D" />
<rect x="5" y="20" width="5" height="1" fill="#9F051D" />
<rect x="19" y="20" width="4" height="1" fill="#9F051D" />
<rect x="24" y="20" width="1" height="1" fill="#9F051D" />
<rect x="7" y="21" width="3" height="2" fill="#9F051D" />
<rect x="16" y="21" width="1" height="3" fill="#D43C0D" />
<rect x="17" y="21" width="3" height="1" fill="#9F051D" />
<rect x="11" y="22" width="1" height="1" fill="#9F051D" />
<rect x="12" y="22" width="4" height="1" fill="#D43C0D" />
<rect x="17" y="22" width="1" height="4" fill="#9F051D" />
<rect x="7" y="23" width="1" height="2" fill="#9F051D" />
<rect x="12" y="23" width="2" height="1" fill="#9F051D" />
<rect x="14" y="23" width="2" height="1" fill="#D43C0D" />
<rect x="6" y="24" width="1" height="2" fill="#9F051D" />
<rect x="14" y="24" width="3" height="1" fill="#9F051D" />
<rect x="18" y="24" width="1" height="2" fill="#9F051D" />
<rect x="5" y="25" width="1" height="2" fill="#9F051D" />
<rect x="2" y="26" width="3" height="2" fill="#9F051D" />
</svg>