<svg width="184" height="54" viewBox="0 0 184 54" fill="none" xmlns="http://www.w3.org/2000/svg">
<path d="M24 8.5C28.1989 8.5 31.7597 11.2239 33.0156 15H168C176.56 15 183.5 21.9396 183.5 30.5V37.415C183.5 46.0094 176.507 52.9632 167.913 52.915L19.9131 52.084C11.3868 52.0361 4.5 45.1104 4.5 36.584V25.8516C4.50011 19.9827 9.15922 15.2046 14.9805 15.0088C16.2337 11.228 19.7977 8.5 24 8.5ZM6 0.5C9.03757 0.5 11.5 2.96243 11.5 6C11.5 9.03757 9.03757 11.5 6 11.5C2.96243 11.5 0.5 9.03757 0.5 6C0.5 2.96243 2.96243 0.5 6 0.5Z" fill="#353535" fill-opacity="0.99" stroke="#464646"/>
</svg>
