<svg width="295" height="295" viewBox="0 0 295 295" fill="none" xmlns="http://www.w3.org/2000/svg">
<circle cx="147.5" cy="147.5" r="147.5" fill="url(#paint0_linear_666_192)"/>
<path d="M197.93 8.8457C203.083 10.7206 208.103 12.8741 212.971 15.2891C202.506 17.4777 194.096 19.937 188.688 25.335C183.935 30.0785 180.721 38.0414 182.676 53.2363C191.927 45.6914 202.75 41.0002 212.575 37.209C218.529 34.9117 223.869 33.0363 228.832 30.959C230.884 30.1 232.772 29.2435 234.489 28.3701C237.405 30.5027 240.239 32.7402 242.986 35.0762C239.821 37.0174 236.304 38.6719 232.692 40.1836C227.585 42.3211 221.722 44.3989 216.176 46.5391C204.749 50.9482 193.523 56.0488 184.977 64.6094C178.464 71.1332 173.294 79.8927 171.105 92.4707C181.425 84.0664 194.171 81.0253 206.709 79.1787C220.528 77.1435 233.64 76.5426 246.124 72.9023C253.927 70.627 261.144 67.2208 267.423 61.6084C269.381 64.337 271.248 67.1347 273.02 69.998C265.716 76.2027 257.477 80.0079 248.924 82.502C235.58 86.393 220.66 87.2303 208.167 89.0703C195.201 90.9799 184.19 93.9739 175.877 101.554C169.13 107.705 163.625 117.396 160.871 133.521C164.655 130.3 168.704 127.65 172.98 125.472C188.19 117.725 205.768 116.219 222.332 114.828C239.289 113.405 255.288 112.099 269.275 105.625C274.925 103.01 280.308 99.5144 285.269 94.7051C286.562 98.0796 287.736 101.513 288.784 105.002C284.005 109.031 278.876 112.201 273.476 114.7C257.588 122.053 239.712 123.404 223.169 124.793C206.234 126.214 190.686 127.676 177.521 134.382C169.643 138.394 162.435 144.401 156.441 153.868C200.569 165.493 215.096 166.002 229.188 159.854C236.816 156.527 244.307 151.274 256.205 143.724C265.531 137.806 277.162 130.762 292.936 122.778C293.521 126.246 293.984 129.755 294.322 133.3C280.482 140.445 270.059 146.775 261.562 152.166C250.289 159.319 241.748 165.285 233.188 169.02C215.232 176.853 197.105 175.035 151.584 162.929C149.851 166.753 148.268 171.001 146.854 175.727C145.67 181.627 144.2 187.227 142.472 192.522L144.169 188.994C167.325 200.143 185.545 204.387 200.568 204.615C215.535 204.843 227.679 201.09 238.745 195.691C250.117 190.144 259.756 183.224 270.856 176.616C278.026 172.348 285.559 168.39 293.891 165.655C293.421 169.478 292.807 173.254 292.051 176.98C286.559 179.214 281.281 182.049 275.972 185.209C265.838 191.241 254.946 198.914 243.13 204.679C231.009 210.592 217.309 214.871 200.417 214.614C183.723 214.361 164.257 209.681 140.44 198.293C136.306 209.241 131.027 218.765 124.924 226.838C146.077 237.014 163.059 241.602 177.263 242.75C192.429 243.975 204.698 241.303 215.807 236.967C227.155 232.537 236.973 226.541 248.013 220.771C258.208 215.442 269.084 210.532 281.872 208.414C280.087 212.346 278.133 216.185 276.021 219.923C267.815 222.163 260.26 225.653 252.645 229.633C242.341 235.018 231.47 241.586 219.443 246.281C207.177 251.07 193.384 254.086 176.457 252.718C160.191 251.403 141.284 246.061 118.279 234.726C109.79 243.755 100.129 250.393 89.9648 254.583C126.069 274.766 157.433 275.077 185.874 270.015C201.237 267.28 215.596 263.012 229.764 259.296C236.089 257.637 242.374 256.09 248.605 254.892C242.97 260.199 236.917 265.068 230.5 269.444C217.225 272.965 202.824 277.154 187.627 279.859C155.473 285.583 119.146 284.797 77.3545 258.742L77.5498 258.431C68.3741 260.363 59.0999 260.347 50.2441 258.392C43.5054 252.477 37.3099 245.959 31.7432 238.92C46.7431 250.509 66.0786 252.921 84.3037 246.069C98.4661 240.745 112.167 229.704 122.473 212.641C115.867 210.126 109.042 210.592 101.524 212.716C96.8723 214.03 92.0813 215.947 87.0117 218.118C82.0396 220.248 76.6761 222.68 71.3193 224.78C60.5537 229 48.6663 232.372 36.0215 230.344C31.5712 229.63 27.1285 228.264 22.6865 226.13C18.7179 219.844 15.2103 213.237 12.2129 206.357C21.3014 215.262 29.7539 219.21 37.6055 220.47C47.556 222.066 57.3876 219.499 67.6699 215.469C72.8372 213.443 77.8318 211.171 83.0742 208.926C88.2191 206.722 93.501 204.591 98.8057 203.093C108.003 200.494 117.623 199.706 127.247 203.778C131.451 194.995 134.831 184.921 137.097 173.523L137.142 173.295L137.208 173.073C137.412 172.387 137.622 171.709 137.833 171.039C129.121 167.174 120.247 168.026 110.417 171.482C99.5161 175.315 88.7882 181.781 76.2471 187.871C64.1156 193.762 50.7875 198.983 36.3955 198.795C26.5256 198.666 16.4555 196.004 6.14453 189.764C4.69893 184.922 3.4974 179.975 2.5498 174.938C14.8433 185.081 26.0858 188.659 36.5264 188.795C48.4937 188.951 60.073 184.609 71.8789 178.876C83.275 173.342 95.5163 166.121 107.1 162.048C118.094 158.182 129.606 156.68 141.254 161.621C144.058 154.884 147.303 149.131 150.933 144.219L149.516 144.107C149.93 138.828 150.577 133.967 151.441 129.489C145.833 126.422 140.814 124.97 136.232 124.6C130.859 124.166 125.77 125.195 120.68 127.294C110.118 131.649 100.458 140.082 88.6914 148.879C77.3026 157.393 64.3252 165.858 48.3574 168.091C34.3269 170.053 18.6279 167.135 0.273438 156.528C0.0930752 153.542 9.4025e-07 150.531 0 147.499C0 146.551 0.0114747 145.604 0.0292969 144.66C19.3561 157.131 34.4551 159.938 46.9727 158.188C60.2726 156.327 71.5203 149.23 82.7031 140.87C93.5079 132.792 104.768 123.038 116.867 118.049C123.107 115.476 129.785 114.045 137.037 114.631C142.492 115.071 148.093 116.639 153.916 119.508C155.783 113.485 158.153 108.323 160.981 103.899L160.002 103.876C160.103 99.7821 160.444 95.938 160.998 92.3262C146.082 84.8816 132.547 85.7645 119.399 90.5566C105.537 95.6094 92.5165 104.818 78.8213 113.585C65.5375 122.089 51.4396 130.293 36.5938 131.314C25.195 132.098 13.9535 128.653 2.68066 119.365C3.40345 115.623 4.26861 111.931 5.26855 108.295C16.3874 118.957 26.4633 121.987 35.9082 121.338C47.8743 120.515 59.964 113.783 73.4297 105.163C86.4842 96.806 100.776 86.702 115.976 81.1621C130.527 75.8587 146.251 74.5755 163.24 82.3164C165.684 74.2123 169.389 67.5035 173.979 61.8838C173.594 59.9554 173.27 58.0886 173.005 56.2822C158.427 49.34 145.023 49.9188 131.97 54.0312C117.886 58.4683 104.611 66.8502 90.6348 74.7285C77.0517 82.3849 62.6865 89.6253 47.6777 89.9189C37.2445 90.123 26.957 86.9916 16.6787 79.3047C18.2392 76.3172 19.8995 73.3902 21.6543 70.5273C30.7965 77.6756 39.3369 80.0802 47.4824 79.9209C59.681 79.6822 72.031 73.7353 85.7246 66.0166C99.025 58.5195 113.591 49.3369 128.965 44.4932C142.423 40.2533 156.782 39.2153 172.104 45.0303C172.064 33.0884 175.405 24.4626 181.623 18.2568C186.121 13.7673 191.847 10.8925 197.93 8.8457Z" fill="url(#paint1_linear_666_192)"/>
<defs>
<linearGradient id="paint0_linear_666_192" x1="250.825" y1="295" x2="44.1759" y2="3.23168e-06" gradientUnits="userSpaceOnUse">
<stop stop-color="#AB3527"/>
<stop offset="0.87" stop-color="#282828"/>
</linearGradient>
<linearGradient id="paint1_linear_666_192" x1="250.248" y1="282.747" x2="63.4547" y2="-3.78849" gradientUnits="userSpaceOnUse">
<stop stop-color="#8A2420"/>
<stop offset="0.87" stop-color="#282828"/>
</linearGradient>
</defs>
</svg>
